<svg width="289" height="186" viewBox="0 0 289 186" fill="none" xmlns="http://www.w3.org/2000/svg"><path d="M12.814 12.722c4.298-.82 8.05.427 12.322.497 3.57.058 7.284.83 10.775 1.464.92.167 2.763.114 2.763 1.299 0 5.416 1.709 10.575 2.376 15.914.362 2.892.608 6.556.608 9.421v3.73c0 2.565.92 1.8 3.288 2.238 6.225 1.153 12.237 3.232 18.594 3.232 3.722 0 1.96-10.846 2.238-12.958.868-6.6.248-13.691.248-20.362 0-3.322 2.569-1.492 5.25-1.492 5.226 0 10.459.225 15.638-.607 2.594-.418 5.219-1.382 7.846-1.382 2.59 0 .277 11.083.138 13.096-.28 4.068-.913 8.237-1.022 12.267-.068 2.524-.368 5.002-.497 7.46-.048.914-1.288 2.984.304 2.984 8.022 0 15.477 2.984 23.539 2.984 1.136 0 3.296.55 3.537-.774.911-5.012 1.635-10.061 2.348-15.14.743-5.295.111-11.077.111-16.44 0-.568-.294-2.318.221-2.735 1.038-.84 4.249-.22 5.553-.22 4.859 0 9.69-.83 14.505-.995 1.607-.056 3.226 0 4.835 0 2.26 0 1.243 3.818 1.243 5.47 0 5.321.355 10.751-.387 16.025-.444 3.162-1.602 6.97-1.602 10.084 0 1.372-.882 1.535.304 1.271 2.018-.448 4.605-.028 6.658-.028h12.406c.712 0 3.381-.404 3.895.11.783.783.048 5.04-.138 5.858-1.532 6.742-1.09 14.123-1.243 20.998-.035 1.578-.634 3.167-.884 4.586-.174.986 16.382.774 18.483.774h8.012c1.765 0 3.233.612 3.233-1.492 0-11.262.094-22.577-.497-33.817-.191-3.623-.498-7.387-.498-11.162v-7.488c0-.619-.376-3.171.332-3.509 2.318-1.104 6.187-.789 8.675-.994 2.4-.198 4.779-.221 7.184-.221 3.673 0 7.379-.136 11.051 0 .561.02.094 10.559.138 11.631.43 10.52.47 21.033.47 31.58 0 2.356-.87 2.685.801 1.27 4.937-4.177 12.286-6.645 18.373-8.675 2.827-.942 3.539-1.449 2.708 1.824-1.735 6.829-1.889 14.534-2.708 21.55-.986 8.457-1.271 16.897-1.271 25.363 0 .414-.966 0-1.492 0-1.506 0-2.881.123-4.365.387-3.413.607-7.347.608-10.803.608h-42.907c-.694 0-.942-.239-.58.304 1.637 2.456 1.36 5.852 1.437 8.703.158 5.859.027 11.737.027 17.599 0 1.402-.172 5.438-1.105 6.603-.629.786-.884 2.544-.884 3.592 0 1.905-15.88 1.91-18.069 1.962-4.699.11-9.109.416-13.732.994-2.931.367-1.227-.199-2.237-2.459-2.603-5.817-4.914-11.827-6.963-17.875-1.174-3.468-3.553-8.281-3.757-11.963-.062-1.106-.837-.498-2.1-.498-6.56 0-12.997-1.513-19.506-1.961-1.777-.123-4.175-.326-5.968 0-1.39.252-.773 4.006-.773 4.945 0 7.376-3.175 14.776-5.25 21.771-2.086 7.036-2.963 14.503-4.641 21.634-.42 1.785-.98-.577-2.045-.636-2.8-.156-5.624.137-8.427-.028-4.872-.286-9.753-1.337-14.587-1.961-1.417-.183-4.75-.364-4.835-1.989-.06-1.138-.626-2.533-1.05-3.564-1.64-3.982-2.425-8.173-3.426-12.35-1.57-6.545-2.914-13.461-3.979-20.114-.255-1.598-.483-3.26-2.265-3.26-4.647 0-9.097.065-13.649-.995-3.326-.774-8.196-1.73-11.631-.967-.847.188-.3 6.724-.304 7.156-.096 8.947-2.356 18.367-4.587 27.021-.526 2.041-.56 7.19-2.155 8.786-.595.595-2.78.401-3.453.027-2.02-1.121-4.89-.748-7.1-1.133-1.965-.341-6.047.015-7.46-1.713-.43-.525-.111-2.23-.111-2.873 0-3.311-1.209-6.674-1.768-9.919-2.647-15.349-6.407-31.522-3.592-47.161.109-.604 1.061-3.993 2.376-2.349 1.7 2.126 9.275.746 11.521.746 12.231 0 24.504.61 36.442 3.481 3.783.91 7.326 2.241 10.914 3.702.778.318 1.917 1.802 2.293 1.05.489-.977-.16-3.454-.249-4.42-.527-5.697-.427-11.42-.967-17.13-.185-1.96-1.758-6.531.028-8.316 2.236-2.237 6.093-3.478 8.868-4.78 2.624-1.23 5.652-2.826 8.62-2.928 1.951-.068 1.603.788 1.603 2.486 0 12.177 2.71 24.337 4.752 36.304.548 3.208 1.191 6.431 1.686 9.642.154 1.007-.134.206.248-.304.658-.876 1.739-1.387 2.708-1.795 5.902-2.489 12.362-4.117 18.621-5.388 8.85-1.797 17.78-2.155 26.772-2.155 1.079 0 2.731.638 2.294.166-2.107-2.275-2.35-5.745-2.625-8.648-.852-8.998-.746-27.104-.746-27.104s.721 1.769 1.492 1.769c4.382 0 9.268-1.257 13.593-.47 1.04.189.332 10.112.332 10.471 0 20.555 5.08 39.875 8.426 59.954 2.068 12.407 3.569 25.013 5.913 37.437.151.799.404 6.529 1.188 7.156.291.232 8.667-2.764 9.117-2.874 10.907-2.664 22.021-5.249 33.32-5.249 2.822 0 1.737-3.669 1.99-5.94 1.415-12.74 3.509-25.419 5.166-38.128.175-1.339.426-3.247 1.133-4.448.239-.406.694.124.884.276.809.648 2.023.505 2.984.498 8.504-.064 16.966-1.776 25.308-3.26 9.185-1.635 18.407-3.042 27.628-4.449-10.487 1.613 10.121-1.536 10.889 0" stroke="#000" stroke-width="2" stroke-linecap="round" stroke-linejoin="round"/><path d="M11.82 35.1c9.768 1.533 19.57-.497 29.23-.497h9.808c2.957 0 1.933-4.8 2.238-7.072.706-5.252 1.748-10.564 2.708-15.776.294-1.598-.068-8.16 1.27-8.87 1.93-1.02 6.562-.494 8.648-.58 3.394-.138 6.741-.524 10.14-.524 2.849 0 1.105 4.174 1.105 6.354 0 7.501.762 15.08 1.74 22.518.51 3.865.747 7.682.747 11.576 0 3.078 7.525-.556 9.228-.884 7.66-1.478 15.224-3.26 23.07-3.26.595 0 3.009-.372 2.127.608-1.452 1.613-.648 5.667-.856 7.625-.617 5.794-1.741 12.083-1.741 17.876 0 5.313-.497 10.953-.497 16.411 0 1.479-.462 1.083-1.713 1.354-3.474.75-6.77 1.761-10.223 2.625-5.636 1.409-12.04 3.73-17.903 3.73-1.09 0-1.339.246-2.238.745-1.308.727-2.92-.023-4.227-.359-4.542-1.168-9.778-1.21-14.422-1.989-8.716-1.462-16.591-3.868-25.363-3.868h-9.947c-1.631 0-.472 8.634-.497 10.057-.118 6.668-1.382 14.853-3.481 21.274-.653 1.995-2.264 5.877-2.017 6.741.42 1.47.525 3.927.525 5.443 0 2.212.994 4.22.994 6.465 0 .514-.324 2.736.111 3.122.002.002 3.163-.387 3.398-.387 4.697 0 9.131 1.358 13.51 2.874 1.978.684 3.772.607 5.858.607.815 0 1.99.34 1.99-.745 0-2.241-.162-4.372-.388-6.604-.18-1.775-1.558-21.495.139-21.495 8.423 0 16.284-.122 24.561 1.741 2.862.644 8.013.846 8.013 4.476v8.951c0 16.724 1.413 33.425 1.961 50.146.025.746-.284 7.223.746 7.681.733.326 2.569-.333 3.288-.414 4.958-.562 9.897-1.228 14.864-1.713a1105.15 1105.15 0 0017.323-1.852c1.199-.136 6.086-.117 6.963-.994 1.156-1.157.141-9.257.221-10.333 1.151-15.543 2.873-31.042 2.873-46.637 0-.446-.12-11.328.111-11.328.393 0 1.042.696 1.547.774 2.57.395 5.168.497 7.763.497h7.377c7.724 0 15.628-2.21 22.987-2.21.958 0 3.802-.036 4.587-.663.587-.471 1.894.062 2.597-.139 1.548-.442.374-.331.304-.856-.639-4.786 2.323-11.3 3.343-16.025 1.858-8.608 3.439-17.15 4.835-25.832.787-4.898 1.243-9.983 1.243-14.947 0-1.922.869-1.598 2.569-1.244 6.896 1.437 14.944.249 22.02.249 1.051 0 1.769.252 1.769-.995V20.07c0-3.656-.593-7.978.497-11.521.411-1.337 1.323-.315 1.989.193.997.76 2.803.74 3.979.995 2.502.544 4.984 1.183 7.487 1.713 4.869 1.03 10.553 1.084 15.168 2.763 1.936.704 3.167.077 3.205 2.597.157 10.51.125 21.055-.387 31.551-.617 12.653-.634 25.246-2.21 37.852-.126 1.006-1.095 2.957.166 2.597 3.497-1 6.645-2.33 10.278-2.984 2.225-.4 4.442-.723 6.686-.995.721-.087 1.87-.677 2.597-.47.546.157.276 2.105.276 2.57 0 21.379 4.973 42.48 4.973 63.877 0 7.895.253 16.022-.994 23.816-.077.48-1.072 3.591-.387 4.089 1.024.745 6.598-2.489 7.653-2.901 3.991-1.557 7.995-3.951 12.377-3.951h5.391" stroke="#000" stroke-width="2" stroke-linecap="round" stroke-linejoin="round"/></svg>